<svg width="32" height="32" viewBox="0 0 32 32" fill="none" xmlns="http://www.w3.org/2000/svg">
<rect width="32" height="32" rx="12" fill="#53399E"/>
<path d="M7.839 9.858C10.779 5.942 16.869 4.803 21.203 7.498C25.483 10.158 27.057 15.275 25.303 20.075C23.648 24.608 19.287 26.403 16.144 24.123C14.967 23.269 14.51 22.198 14.29 20.459L14.184 19.472L14.139 19.074C14.016 18.14 13.828 17.722 13.434 17.502C12.899 17.204 12.542 17.197 11.839 17.469L11.488 17.615L11.309 17.693C10.295 18.133 9.621 18.288 8.768 18.109L8.568 18.062L8.404 18.015C5.615 17.151 5.202 13.368 7.839 9.858V9.858ZM8.823 16.574L8.946 16.611L9.08 16.641C9.519 16.728 9.894 16.656 10.517 16.399L11.119 16.142C12.321 15.649 13.104 15.602 14.165 16.192C15.082 16.704 15.44 17.49 15.622 18.852L15.675 19.311L15.73 19.843L15.777 20.265C15.949 21.626 16.262 22.355 17.025 22.909C19.3 24.559 22.559 23.218 23.895 19.56C25.411 15.408 24.069 11.046 20.411 8.771C16.736 6.487 11.512 7.465 9.038 10.758C6.963 13.521 7.218 16.038 8.823 16.574V16.574ZM20.048 14.58C20.0008 14.42 19.986 14.2522 20.0046 14.0864C20.0233 13.9207 20.0749 13.7603 20.1564 13.6148C20.238 13.4693 20.3479 13.3416 20.4795 13.2392C20.6112 13.1368 20.7621 13.0618 20.9232 13.0186C21.0843 12.9754 21.2525 12.9649 21.4177 12.9877C21.583 13.0105 21.742 13.0662 21.8854 13.1514C22.0288 13.2366 22.1537 13.3497 22.2527 13.4839C22.3517 13.6181 22.4229 13.7708 22.462 13.933C22.5384 14.25 22.488 14.5842 22.3214 14.8645C22.1548 15.1448 21.8854 15.349 21.5704 15.4334C21.2555 15.5178 20.92 15.4758 20.6356 15.3164C20.3512 15.1569 20.1403 14.8927 20.048 14.58V14.58ZM20.542 18.068C20.4562 17.7478 20.5011 17.4065 20.6669 17.1194C20.8327 16.8323 21.1058 16.6228 21.426 16.537C21.7463 16.4512 22.0875 16.4961 22.3746 16.6619C22.6617 16.8277 22.8712 17.1008 22.957 17.421C22.9995 17.5796 23.0103 17.745 22.9889 17.9077C22.9674 18.0705 22.9142 18.2274 22.8321 18.3696C22.75 18.5118 22.6407 18.6364 22.5105 18.7363C22.3802 18.8362 22.2316 18.9095 22.073 18.952C21.9144 18.9945 21.749 19.0053 21.5863 18.9839C21.4235 18.9625 21.2666 18.9092 21.1244 18.8271C20.9823 18.745 20.8576 18.6357 20.7577 18.5055C20.6578 18.3752 20.5845 18.2266 20.542 18.068V18.068ZM18.07 11.577C17.9842 11.2568 18.0291 10.9155 18.1949 10.6284C18.3607 10.3413 18.6338 10.1318 18.954 10.046C19.2743 9.9602 19.6155 10.0051 19.9026 10.1709C20.1897 10.3367 20.3992 10.6098 20.485 10.93C20.5275 11.0886 20.5383 11.254 20.5169 11.4167C20.4954 11.5795 20.4422 11.7364 20.3601 11.8786C20.278 12.0208 20.1687 12.1454 20.0385 12.2453C19.9082 12.3452 19.7596 12.4185 19.601 12.461C19.2808 12.5468 18.9395 12.5019 18.6524 12.3361C18.5103 12.254 18.3856 12.1447 18.2857 12.0145C18.1858 11.8842 18.1125 11.7356 18.07 11.577V11.577ZM18.042 20.575C17.9948 20.415 17.98 20.2472 17.9986 20.0814C18.0173 19.9157 18.0689 19.7553 18.1504 19.6098C18.232 19.4643 18.3419 19.3366 18.4735 19.2342C18.6052 19.1318 18.7561 19.0568 18.9172 19.0136C19.0783 18.9704 19.2465 18.9599 19.4117 18.9827C19.577 19.0055 19.736 19.0612 19.8794 19.1464C20.0228 19.2316 20.1477 19.3447 20.2467 19.4789C20.3457 19.6131 20.4169 19.7658 20.456 19.928C20.5324 20.245 20.482 20.5792 20.3154 20.8595C20.1488 21.1398 19.8794 21.344 19.5644 21.4284C19.2495 21.5128 18.914 21.4708 18.6296 21.3114C18.3452 21.1519 18.1343 20.8877 18.042 20.575V20.575ZM14.545 10.605C14.501 10.4459 14.4889 10.2797 14.5095 10.1159C14.53 9.95217 14.5828 9.7941 14.6648 9.65084C14.7468 9.50758 14.8563 9.38197 14.9871 9.28127C15.1179 9.18057 15.2673 9.10676 15.4267 9.06411C15.5862 9.02146 15.7525 9.01081 15.9161 9.03277C16.0797 9.05473 16.2373 9.10888 16.3798 9.19208C16.5224 9.27528 16.647 9.38588 16.7466 9.51751C16.8462 9.64915 16.9187 9.79919 16.96 9.959C17.0425 10.2782 16.9955 10.617 16.8293 10.9017C16.6631 11.1865 16.3912 11.394 16.0727 11.4792C15.7543 11.5644 15.415 11.5203 15.1289 11.3566C14.8428 11.1929 14.6329 10.9227 14.545 10.605V10.605Z" fill="white"/>
</svg>
